<svg width="24" height="24" viewBox="0 0 24 24" fill="none" xmlns="http://www.w3.org/2000/svg">
<path d="M10.94 20.717C11.2212 20.9979 11.6025 21.1557 12 21.1557C12.3975 21.1557 12.7787 20.9979 13.06 20.717L18.719 15.061C19.0004 14.7796 19.1584 14.398 19.1584 14C19.1584 13.602 19.0004 13.2204 18.719 12.939C18.4376 12.6576 18.0559 12.4995 17.658 12.4995C17.26 12.4995 16.8784 12.6576 16.597 12.939L13.5 16.035L13.5 4.5C13.5 4.10218 13.3419 3.72065 13.0606 3.43934C12.7793 3.15804 12.3978 3 12 3C11.6021 3 11.2206 3.15804 10.9393 3.43934C10.658 3.72065 10.5 4.10218 10.5 4.5L10.5 16.035L7.40397 12.939C7.26463 12.7997 7.09922 12.6891 6.91718 12.6137C6.73513 12.5383 6.54001 12.4995 6.34297 12.4995C6.14592 12.4995 5.9508 12.5383 5.76876 12.6137C5.58671 12.6891 5.4213 12.7997 5.28197 12.939C5.14263 13.0783 5.03211 13.2437 4.9567 13.4258C4.8813 13.6078 4.84249 13.803 4.84249 14C4.84249 14.197 4.8813 14.3922 4.9567 14.5742C5.03211 14.7563 5.14263 14.9217 5.28197 15.061L10.94 20.717Z" fill="white"/>
</svg>
