<svg width="41" height="71" viewBox="0 0 41 71" fill="none" xmlns="http://www.w3.org/2000/svg">
<path d="M10.4414 61.1986C11.3371 60.3642 12.339 59.6497 13.3412 58.9512C13.8408 58.6029 14.351 58.2258 14.8886 57.9374C15.1623 57.9973 25.8496 58.0248 26.2185 57.9371C27.2108 58.5584 29.895 60.3223 30.4961 61.2074C27.6008 61.2934 24.6216 61.2104 21.7176 61.2083C17.962 61.2057 14.1961 61.2641 10.4414 61.1986Z" fill="white"/>
<path d="M10.2075 9.77947C12.65 9.6543 15.1317 9.74058 17.5793 9.7411L30.5883 9.74968C29.6203 10.8815 28.4136 11.7865 27.2078 12.648C26.9916 12.8024 26.7458 13.0256 26.5094 13.1352C26.3085 13.0573 15.6305 13.1233 14.476 13.1133C13.0037 12.1381 11.4186 11.0741 10.2075 9.77947Z" fill="white"/>
<path d="M8.78369 30.7143C9.59402 29.7629 11.6135 28.1823 12.7504 27.5852C13.2313 27.6277 13.7259 27.6018 14.2089 27.6008L16.7754 27.5939C19.3551 27.5775 21.9347 27.5806 24.5144 27.603C24.9282 27.6052 27.8377 27.6894 28.031 27.5979C29.2301 28.2097 31.1758 29.6854 32.0062 30.711C30.9872 30.7755 29.9381 30.7266 28.9151 30.7255L23.1114 30.7186L13.8842 30.7213C12.185 30.7224 10.4825 30.7457 8.78369 30.7143Z" fill="white"/>
<path d="M8.76074 40.2748C12.2074 40.2254 15.6592 40.259 19.1065 40.2583L32.0681 40.268C31.2907 41.1795 30.2622 41.9881 29.3107 42.709C28.957 42.977 28.5246 43.2206 28.2043 43.5203C27.7977 43.3809 22.5786 43.5027 21.7464 43.5042C18.783 43.5093 15.8141 43.4501 12.8518 43.4825C12.7623 43.4834 12.708 43.4969 12.626 43.5287C11.6144 42.9176 9.4774 41.2262 8.76074 40.2748Z" fill="white"/>
<path fill-rule="evenodd" clip-rule="evenodd" d="M14.3863 19.9735C14.1477 19.8384 13.9114 19.6995 13.6774 19.5567C8.19689 16.2698 2.03941 11.6225 0.412366 5.07816C0.171176 4.10789 -0.296235 1.56584 0.265374 0.686137C0.449834 0.397254 0.739002 0.145073 1.08306 0.0813046C1.62357 -0.0188147 4.31378 -0.0325671 4.82978 0.0743845C5.00855 0.111437 5.18364 0.206738 5.33036 0.312551C5.9785 0.779951 6.03816 1.60924 6.09589 2.41184V2.41184C6.11471 2.67341 6.13332 2.93213 6.17204 3.17458L23.7471 3.16468L30.6475 3.17449C31.0544 3.17498 31.4621 3.17264 31.8699 3.1703H31.8699C32.7891 3.16503 33.7096 3.15976 34.6261 3.18675C34.6595 2.99362 34.6823 2.76498 34.7067 2.52107C34.7887 1.69871 34.888 0.702915 35.4715 0.310274C35.7046 0.153306 35.981 0.0784138 36.2575 0.0463546C36.8007 -0.0165375 39.2882 -0.00611425 39.8055 0.113976C40.1702 0.198679 40.4834 0.396816 40.6732 0.725116C41.2894 1.79104 40.6356 4.91708 40.2872 6.10125C38.7529 11.3176 34.0511 15.2167 29.6814 18.078C29.5256 18.18 29.3699 18.2828 29.214 18.3857L29.214 18.3858C28.4875 18.8655 27.7567 19.3481 26.9939 19.7626C26.8827 19.824 26.7698 19.8819 26.6551 19.9363C27.264 20.3382 27.9076 20.6945 28.5511 21.0507L28.5512 21.0507L28.5512 21.0507L28.5512 21.0507L28.5513 21.0507L28.5513 21.0508L28.5513 21.0508L28.5514 21.0508C29.0537 21.3289 29.556 21.6069 30.0418 21.9067C30.5371 22.2123 31.0209 22.5435 31.5032 22.8737L31.5032 22.8737L31.5033 22.8737L31.5033 22.8738L31.5034 22.8738L31.5035 22.8739C31.6822 22.9962 31.8607 23.1184 32.0394 23.2391C35.2822 25.4283 39.4012 28.5452 40.2462 32.6082C40.4334 33.5085 40.433 34.3986 40.4327 35.3118L40.4327 35.3481C40.4314 38.0791 40.3102 39.4912 38.7461 41.868C36.3941 45.4419 32.3451 48.1639 28.6452 50.1651C28.4986 50.2444 28.3517 50.3252 28.2045 50.4061L28.2042 50.4063L28.2038 50.4065C27.7281 50.6681 27.2483 50.9319 26.7592 51.1562C27.272 51.5012 27.7983 51.8223 28.3246 52.1435L28.3247 52.1435L28.3247 52.1436L28.3248 52.1436L28.3248 52.1436L28.3249 52.1437L28.3249 52.1437L28.325 52.1438L28.3251 52.1438C29.0344 52.5766 29.7436 53.0094 30.4196 53.5003C31.7073 54.4354 32.9496 55.52 34.0971 56.6199C37.4254 59.81 39.9155 63.3364 40.8104 67.9303C40.8192 67.9752 40.8283 68.0214 40.8377 68.0686C40.974 68.7551 41.1538 69.6604 40.7636 70.256C40.5358 70.6037 40.1594 70.7936 39.7578 70.8606C39.3173 70.9341 36.6269 70.9286 36.1797 70.8561C35.9478 70.8185 35.727 70.7432 35.5379 70.6004C35.0035 70.1969 34.8961 69.3791 34.7971 68.6259C34.7528 68.2883 34.7101 67.9636 34.6315 67.695C32.069 67.7286 29.5034 67.7176 26.9386 67.7066H26.938H26.9373H26.9367H26.936H26.9354H26.9347H26.9341H26.9334H26.9328H26.9321H26.9314H26.9308H26.9301H26.9295C25.6848 67.7013 24.4403 67.696 23.1965 67.6957L6.34214 67.6958C6.23791 68.1055 6.17916 68.5134 6.12013 68.9231C6.08664 69.1556 6.05306 69.3887 6.01104 69.6231C5.93548 70.0446 5.78552 70.4622 5.41099 70.7067C5.19773 70.8458 4.9491 70.9218 4.69837 70.9556C4.19988 71.0229 1.55362 71.014 1.14933 70.9268C0.764477 70.8437 0.427249 70.6328 0.22563 70.2891C-0.297021 69.3984 0.243488 66.996 0.511905 65.981C1.72442 61.3953 4.64602 57.993 8.25765 55.0695C8.39882 54.9552 8.53975 54.8397 8.68092 54.724C9.18417 54.3116 9.69044 53.8968 10.2213 53.526C11.2912 52.7789 12.4262 52.1209 13.5559 51.4659C13.7152 51.3736 13.8743 51.2814 14.0332 51.1889C13.7823 51.0218 13.5097 50.8758 13.2392 50.731L13.2391 50.7309L13.239 50.7309L13.2389 50.7308C13.121 50.6677 13.0035 50.6047 12.8884 50.5404C12.1815 50.1499 11.483 49.7448 10.793 49.3251C7.33938 47.2003 3.47596 44.2085 1.49496 40.5878C0.166098 38.159 -0.400063 35.502 0.404487 32.7953C2.24445 26.6053 9.1304 22.839 14.3863 19.9735ZM22.5486 55.8641L22.5486 55.8642L22.5494 55.8646C22.8693 56.045 23.1892 56.2254 23.5116 56.4022C23.7555 56.536 24.0035 56.6667 24.2523 56.7979C24.9241 57.152 25.6016 57.5091 26.2195 57.9371C25.8507 58.0248 15.1633 57.9973 14.8896 57.9374C15.9109 57.2733 16.9453 56.6305 17.9928 56.0088C18.1172 55.9342 18.2414 55.8589 18.3659 55.7834L18.3668 55.7829C19.0135 55.3908 19.6646 54.9961 20.3515 54.683C21.1005 55.0474 21.8241 55.4556 22.5483 55.864L22.5484 55.864L22.5484 55.864L22.5484 55.8641L22.5485 55.8641L22.5485 55.8641L22.5486 55.8641ZM17.452 13.108C15.976 13.1126 14.8148 13.1162 14.4756 13.1133C15.018 13.5188 15.6395 13.8747 16.2427 14.2202C16.414 14.3182 16.5838 14.4155 16.7499 14.5128L17.0324 14.6784C18.1898 15.3571 19.368 16.0481 20.5624 16.647C20.8438 16.493 21.1324 16.3364 21.4258 16.1773C23.1357 15.2501 25.0052 14.2364 26.509 13.1352C26.3671 13.0802 21 13.0969 17.452 13.108ZM12.751 27.5852C13.586 27.0026 14.4928 26.5056 15.392 26.0129L15.392 26.0129L15.3921 26.0129L15.3921 26.0128L15.3921 26.0128L15.3922 26.0128C15.6606 25.8657 15.9284 25.7189 16.1934 25.5704C16.4898 25.4042 16.7866 25.2358 17.0841 25.0671C18.1801 24.4454 19.2847 23.8188 20.4126 23.2768C21.9155 24.0896 23.4122 24.9135 24.9028 25.7486L25.1998 25.915C26.1544 26.4495 27.125 26.993 28.0316 27.5979C27.8778 27.6707 26.0051 27.6323 25.0373 27.6124H25.0372H25.0372H25.0371H25.0371H25.0371L25.0368 27.6124C24.7883 27.6073 24.5995 27.6034 24.5149 27.603C21.9353 27.5806 19.3556 27.5775 16.7759 27.5939L14.2095 27.6008C14.0809 27.6011 13.9514 27.6031 13.8216 27.6051L13.8213 27.6051H13.8212H13.8212H13.8212H13.8212H13.8211C13.4637 27.6107 13.1036 27.6164 12.751 27.5852ZM12.8522 43.4825C12.7628 43.4834 12.7085 43.4969 12.6265 43.5287C14.6651 44.991 16.9638 46.1238 19.2256 47.2384L19.2268 47.239L19.2284 47.2398L19.2305 47.2409L19.2326 47.2419C19.6295 47.4375 20.0252 47.6325 20.4182 47.8287C20.9247 47.5675 21.4363 47.3172 21.948 47.0668L21.9484 47.0666C22.5918 46.7518 23.2352 46.437 23.8684 46.1007C25.3487 45.3145 26.7977 44.4311 28.2048 43.5203C27.8871 43.4114 24.633 43.4619 22.8271 43.4899H22.8269H22.8268H22.8267L22.8255 43.4899L22.8217 43.49C22.3184 43.4978 21.9283 43.5039 21.7469 43.5042C20.5253 43.5063 19.3027 43.4974 18.0801 43.4886H18.0799H18.0796H18.0794H18.0792C16.3362 43.476 14.5931 43.4634 12.8522 43.4825ZM17.9975 61.219H17.9977H17.9986H17.9994H18.0003C19.2401 61.2132 20.4795 61.2074 21.7177 61.2083C22.6549 61.209 23.5999 61.2181 24.5474 61.2272H24.5477H24.5481H24.5484C26.5366 61.2464 28.5356 61.2657 30.4962 61.2074C30.749 61.4358 30.9936 61.6727 31.23 61.9181C31.4664 62.1634 31.6939 62.4168 31.9128 62.678C32.1316 62.9392 32.341 63.2077 32.5412 63.4835C32.7413 63.7593 32.9316 64.0417 33.1121 64.3307C32.6895 64.3694 32.2512 64.3622 31.8198 64.3551C31.6808 64.3528 31.5426 64.3506 31.4059 64.3498L28.5659 64.3338L19.653 64.3183L11.3873 64.332C11.1581 64.3327 10.8557 64.3415 10.5209 64.3512L10.52 64.3512H10.5199C9.5923 64.378 8.41657 64.412 7.8623 64.3023C8.55156 63.2311 9.43709 61.9928 10.4415 61.1986C12.9572 61.2425 15.4779 61.2307 17.9972 61.219H17.9974H17.9975ZM26.5202 6.45645L7.47754 6.45575C8.22352 7.62775 9.13199 8.89199 10.2072 9.77948C11.9461 9.69037 13.7048 9.70843 15.4569 9.72642C16.1659 9.7337 16.8739 9.74097 17.579 9.74112L30.588 9.7497C31.4621 9.10519 32.7634 7.40973 33.3065 6.46101C31.0444 6.44693 28.7823 6.44541 26.5202 6.45645ZM12.4153 30.726H12.4157C12.9053 30.7238 13.3948 30.7216 13.8841 30.7213L23.1113 30.7186L28.915 30.7255C29.2177 30.7258 29.5228 30.7303 29.8286 30.7349H29.8287C30.5563 30.7456 31.2886 30.7564 32.0061 30.711C32.9456 31.5235 33.7973 32.6891 34.3166 33.8189C32.9363 33.8627 31.5431 33.8415 30.1533 33.8203H30.1532C29.4364 33.8093 28.7205 33.7984 28.0077 33.7965L15.5997 33.7936L8.8375 33.8331C8.71721 33.8333 8.54674 33.8383 8.35144 33.8439L8.3508 33.8439C7.73491 33.8618 6.87244 33.8868 6.55762 33.7948C6.99517 32.753 7.88307 31.4089 8.78357 30.7143C9.99313 30.7366 11.2046 30.7313 12.4153 30.726ZM27.2011 37.1508L6.55615 37.1381C6.99099 38.2246 7.83109 39.5463 8.76031 40.2748C11.1988 40.2398 13.6399 40.2464 16.0801 40.253C17.089 40.2558 18.0977 40.2585 19.1061 40.2583L32.0677 40.268C32.9602 39.3306 33.6819 38.3433 34.2841 37.1954C34.0509 37.096 30.1192 37.1283 28.1738 37.1442C27.7129 37.148 27.3634 37.1509 27.2011 37.1508Z" fill="#FEFEFE"/>
<path d="M6.17188 3.17456L23.747 3.16467L30.6474 3.17448C31.9714 3.17605 33.3027 3.14776 34.6259 3.18674C34.3249 4.31897 33.93 5.46128 33.3068 6.46098C31.0447 6.44685 28.7826 6.44533 26.5204 6.45643L7.4778 6.45572C6.84038 5.45593 6.43872 4.32353 6.17188 3.17456Z" fill="white"/>
<path d="M6.3418 67.6958C6.675 66.4898 7.2149 65.3679 7.86221 64.3023C8.61678 64.4516 10.5231 64.3347 11.3872 64.3321L19.6529 64.3183L28.5658 64.3338L31.4058 64.3498C31.967 64.3528 32.5533 64.3819 33.112 64.3307C33.758 65.4054 34.2901 66.484 34.6312 67.695C30.822 67.745 27.006 67.6964 23.1962 67.6957L6.3418 67.6958Z" fill="white"/>
<path d="M6.55723 37.1381C6.20626 35.9807 6.10348 34.9462 6.55828 33.7948C6.97307 33.916 8.33854 33.8341 8.83816 33.8331L15.6003 33.7936L28.0083 33.7964C30.1031 33.8022 32.2249 33.8854 34.3173 33.8189C34.8074 35.0166 34.7002 36.001 34.2851 37.1954C33.9967 37.0724 28.0494 37.1509 27.2022 37.1508L6.55723 37.1381Z" fill="white"/>
</svg>
