<svg width="244" height="94" viewBox="0 0 244 94" fill="none" xmlns="http://www.w3.org/2000/svg">
<path d="M234.08 93.0264H24.678L24.5571 92.9615L2.4192 81.0816V47.0001L8.46779 43.7542V26.8757L0.725586 22.721L0.967526 14.087L1.08851 14.0221L25.4039 0.973755H70.8893L78.1476 4.86879H233.597L242.065 9.41299V42.0014L233.96 46.3509V68.0982L242.186 72.5125V88.7419L234.08 93.0264ZM25.1619 92.507H233.597L241.097 88.4822V72.7073L232.871 68.2929V46.0912L240.976 41.7418V9.60774L233.113 5.38812H77.9057L70.6474 1.49308H26.0087L2.05628 14.3467L1.81434 22.5263L9.43556 26.6161V43.949L3.38697 47.1948V80.8219L25.1619 92.507Z" fill="#F8C335"/>
<path d="M45.728 94H23.953L0.605469 81.471V47.1298H5.2024V80.4972L25.8886 91.5331H45.728V94Z" fill="#F8C335"/>
<path d="M235.411 93.6757L232.265 91.923L239.403 88.0928V73.097L231.902 69.0072L235.048 67.3193L244 72.0583V89.0666L235.411 93.6757Z" fill="#F8C335"/>
<path d="M243.879 41.8716H239.282V9.99724L232.387 6.29696H221.016V3.89502H234.323L243.879 8.95856V41.8716Z" fill="#F8C335"/>
<path d="M3.26624 15.0608L0 13.373L24.9202 0H71.8573L78.9947 3.89503H96.5356V6.29698H77.1801L69.9218 2.46685H26.7348L3.26624 15.0608Z" fill="#F8C335"/>
</svg>
