<svg width="134" height="33" viewBox="0 0 134 33" fill="none" xmlns="http://www.w3.org/2000/svg">
<path d="M130 31.7H93.4L90.2 28.5H5.09998L1.20001 24.6V5.2L5.20001 1.2H43.6L47.5 4.10001H105L109.9 1.09999H128.2L133.9 6.8V27.8L130 31.7ZM93.8 30.8H129.7L133.1 27.4V7.2L127.9 2H110.4L105.5 5H47.1L43.2 2.09999H5.5L2 5.59999V24.2L5.29999 27.5H90.5L93.8 30.8Z" fill="#D09B0D"/>
<path d="M129.8 32.8H92.9L89.6 29.6H67.5V26.4H91L94.2 29.6H129.8V32.8Z" fill="#D09B0D"/>
<path d="M3.20001 16.4H0V4.7L4.70001 0H30.1V3.3H6L3.20001 6.09999V16.4Z" fill="#D09B0D"/>
</svg>
