<svg width="25" height="24" viewBox="0 0 25 24" fill="none" xmlns="http://www.w3.org/2000/svg">
<path d="M20.775 9.258C20.775 12.072 18.813 14.424 16.179 15.024C16.179 14.946 16.185 14.868 16.185 14.79C16.185 11.31 13.365 8.49 9.88495 8.49C9.58495 8.49 9.28495 8.514 8.99695 8.55C9.34495 5.622 11.841 3.348 14.865 3.348C18.129 3.348 20.775 5.994 20.775 9.258Z" fill="white"/>
<path d="M9.88495 8.88C6.62095 8.88 3.97495 11.526 3.97495 14.79C3.97495 18.054 6.62095 20.7 9.88495 20.7C13.149 20.7 15.795 18.054 15.795 14.79C15.795 11.526 13.149 8.88 9.88495 8.88ZM13.869 14.526L10.263 19.116C10.185 19.212 10.071 19.266 9.95095 19.266C9.93295 19.266 9.91495 19.266 9.89695 19.26C9.75895 19.242 9.63895 19.146 9.58495 19.014L6.63295 11.802C6.60295 11.724 6.59695 11.634 6.61495 11.556C6.66895 11.34 6.88495 11.214 7.10095 11.262L12.387 12.576C12.459 12.594 12.525 12.63 12.579 12.684L13.851 13.998C13.983 14.142 13.995 14.37 13.869 14.526Z" fill="white"/>
<path d="M12.525 14.79L10.743 14.964C10.689 14.97 10.641 15.012 10.641 15.066L10.455 17.406C10.455 17.424 10.461 17.442 10.479 17.454C10.503 17.472 10.539 17.466 10.557 17.442L12.579 14.88C12.585 14.868 12.591 14.856 12.591 14.838C12.585 14.808 12.561 14.784 12.525 14.79Z" fill="white"/>
<path d="M12.339 13.536C12.309 13.506 12.255 13.5 12.219 13.53L11.607 14.028C11.595 14.04 11.589 14.052 11.589 14.064C11.589 14.088 11.613 14.106 11.637 14.106L12.687 14.004C12.699 14.004 12.705 13.998 12.711 13.992C12.729 13.974 12.729 13.944 12.711 13.932L12.339 13.536Z" fill="white"/>
<path d="M11.355 13.206C11.361 13.176 11.343 13.146 11.313 13.134L8.69095 12.48C8.67295 12.474 8.64895 12.48 8.63695 12.498C8.61295 12.522 8.61895 12.558 8.64295 12.576L10.227 14.01C10.269 14.046 10.329 14.052 10.377 14.016L11.337 13.23C11.343 13.23 11.349 13.218 11.355 13.206Z" fill="white"/>
<path d="M8.21695 13.278C8.19895 13.266 8.17495 13.26 8.15695 13.266C8.12695 13.278 8.11495 13.308 8.12695 13.338L9.59095 16.914C9.59695 16.932 9.61495 16.95 9.63895 16.95C9.66895 16.95 9.69895 16.926 9.69895 16.896L9.86095 14.814C9.86095 14.778 9.84895 14.742 9.82495 14.724L8.21695 13.278Z" fill="white"/>
<path fill-rule="evenodd" clip-rule="evenodd" d="M21.2172 11.9769C21.5017 11.807 21.8701 11.8998 22.04 12.1843L21.525 12.492C22.04 12.1843 22.0399 12.1841 22.04 12.1843L22.0411 12.1861L22.0423 12.1882C22.0433 12.1897 22.0443 12.1915 22.0454 12.1935C22.0478 12.1975 22.0506 12.2024 22.0539 12.2082C22.0605 12.2199 22.0689 12.2353 22.079 12.2543C22.0991 12.2924 22.1257 12.3451 22.1565 12.412C22.218 12.546 22.2963 12.7372 22.3734 12.9828C22.5278 13.4744 22.677 14.183 22.677 15.084C22.677 16.3479 22.1005 17.6058 21.2039 18.5424C20.3037 19.4827 19.0395 20.142 17.619 20.142H16.8355L17.7252 21.0317C17.9595 21.2661 17.9595 21.646 17.7252 21.8803C17.4909 22.1146 17.111 22.1146 16.8767 21.8803L14.9627 19.9663C14.8502 19.8537 14.787 19.7011 14.787 19.542C14.787 19.3829 14.8502 19.2303 14.9627 19.1177L16.8767 17.2037C17.111 16.9694 17.4909 16.9694 17.7252 17.2037C17.9595 17.4381 17.9595 17.818 17.7252 18.0523L16.8355 18.942H17.619C18.6584 18.942 19.6232 18.4583 20.337 17.7126C21.0544 16.9633 21.477 15.9921 21.477 15.084C21.477 14.317 21.3501 13.7296 21.2285 13.3422C21.1676 13.1483 21.108 13.0043 21.066 12.9128C21.045 12.8671 21.0284 12.8346 21.0183 12.8156C21.0133 12.8061 21.0099 12.8 21.0084 12.7973C21.0082 12.7969 21.008 12.7965 21.0078 12.7962C20.8407 12.5123 20.9339 12.1462 21.2172 11.9769Z" fill="white"/>
<path fill-rule="evenodd" clip-rule="evenodd" d="M7.07869 2.22774C7.313 1.99342 7.6929 1.99342 7.92722 2.22774L9.84122 4.14174C10.0755 4.37605 10.0755 4.75595 9.84122 4.99027L7.92722 6.90427C7.6929 7.13858 7.313 7.13858 7.07869 6.90427C6.84437 6.66995 6.84437 6.29005 7.07869 6.05574L7.96843 5.166H7.18495C6.14549 5.166 5.18072 5.64972 4.46687 6.39541C3.74953 7.14475 3.32695 8.11587 3.32695 9.024C3.32695 9.79102 3.45377 10.3784 3.5754 10.7658C3.63628 10.9597 3.69595 11.1037 3.73796 11.1952C3.75895 11.2409 3.77551 11.2734 3.78556 11.2924C3.79058 11.3019 3.79398 11.308 3.79548 11.3107C3.79574 11.3111 3.79594 11.3115 3.79609 11.3117C3.96323 11.5957 3.86999 11.9618 3.58667 12.1311C3.30219 12.301 2.93381 12.2082 2.76387 11.9237L3.27895 11.616C2.76387 11.9237 2.76399 11.9239 2.76387 11.9237L2.76281 11.9219L2.76156 11.9198C2.76066 11.9183 2.75962 11.9165 2.75846 11.9145C2.75615 11.9105 2.75332 11.9056 2.75003 11.8998C2.74345 11.8881 2.73498 11.8727 2.72491 11.8537C2.70477 11.8156 2.6782 11.7629 2.64745 11.696C2.58595 11.5621 2.50763 11.3708 2.43051 11.1252C2.27614 10.6336 2.12695 9.92499 2.12695 9.024C2.12695 7.76014 2.70338 6.50225 3.60004 5.56559C4.50019 4.62529 5.76442 3.966 7.18495 3.966H7.96842L7.07869 3.07627C6.84437 2.84195 6.84437 2.46205 7.07869 2.22774Z" fill="white"/>
</svg>
