<svg width="25" height="24" viewBox="0 0 25 24" fill="none" xmlns="http://www.w3.org/2000/svg">
<path d="M16.5788 12.0001C13.6266 12.0001 11.2275 14.3992 11.2275 17.3514C11.2275 20.3036 13.6266 22.7028 16.5788 22.7028C19.531 22.7028 21.9302 20.3036 21.9302 17.3514C21.9302 14.3992 19.531 12.0001 16.5788 12.0001ZM18.9911 17.0902L17.2058 18.8754C17.0317 19.0496 16.8052 19.1367 16.5745 19.1367C16.348 19.1367 16.1173 19.0496 15.9431 18.8754L15.0505 17.9828C14.7021 17.6344 14.7021 17.0684 15.0505 16.7201C15.3988 16.3717 15.9649 16.3717 16.3132 16.7201L16.5745 16.9813L17.7283 15.8274C18.0767 15.4791 18.6427 15.4791 18.9911 15.8274C19.3394 16.1801 19.3394 16.7418 18.9911 17.0902Z" fill="white"/>
<path d="M18.3614 3.08333H15.848V2.65644C15.848 1.9072 15.2382 1.29736 14.4889 1.29736H8.28597C7.53674 1.29736 6.9269 1.9072 6.9269 2.65644V3.07897H4.41784C3.3419 3.07897 2.4707 3.95453 2.4707 5.0261V20.7556C2.4707 21.8316 3.34626 22.7028 4.41784 22.7028H12.0365C10.5467 21.4003 9.60584 19.488 9.60584 17.3536H6.03827C5.54604 17.3536 5.14529 16.9528 5.14529 16.4606C5.14529 15.9684 5.54604 15.5676 6.03827 15.5676H9.60584C9.68425 15.5676 9.75394 15.5938 9.82799 15.6112C9.99352 14.9621 10.2418 14.348 10.5685 13.7817H6.9269C6.43467 13.7817 6.03391 13.3809 6.03391 12.8887C6.03391 12.3965 6.43467 11.9957 6.9269 11.9957H11.3874C11.566 11.9957 11.7229 12.061 11.8622 12.1525C13.1386 10.9546 14.8505 10.2097 16.741 10.2097C18.0434 10.2097 19.2587 10.5669 20.3085 11.1768V5.03046C20.3085 3.95453 19.433 3.08333 18.3614 3.08333ZM8.71286 9.32548H6.9269C6.43467 9.32548 6.03391 8.92473 6.03391 8.4325C6.03391 7.94027 6.43467 7.53952 6.9269 7.53952H8.71286C9.20509 7.53952 9.60584 7.94027 9.60584 8.4325C9.60584 8.92473 9.20509 9.32548 8.71286 9.32548ZM8.71286 4.86493V3.07897H14.0664V4.86493H8.71286ZM15.848 9.32548H12.2804C11.7882 9.32548 11.3874 8.92473 11.3874 8.4325C11.3874 7.94027 11.7882 7.53952 12.2804 7.53952H15.848C16.3402 7.53952 16.741 7.94027 16.741 8.4325C16.741 8.92473 16.3402 9.32548 15.848 9.32548Z" fill="white"/>
</svg>
