<svg width="288" height="208" viewBox="0 0 288 208" fill="none" xmlns="http://www.w3.org/2000/svg">
<path d="M2.85461 166.866V100.378V99.8608L9.08163 93.6518V59.2439L1.29785 50.9653L1.81677 33.8906L27.5033 8.27869H108.455L116.498 16.2986H276.844L286.703 26.1294V88.4777L277.103 98.0498V143.323L285.665 151.861V183.164L278.141 190.667H26.7249L2.85461 166.866Z" fill="#3D3636"/>
<path d="M277.655 191.259H25.4746L25.3634 191.144L2.44798 167.409V99.6428L8.78865 93.1069V59.5105L0.890625 51.3693L1.22435 34.2844L1.33559 34.1698L26.587 8.14111H109.127L116.58 15.8236H277.21L285.998 24.882V89.667L277.655 98.2668V141.495L286.11 150.209V182.43L277.655 191.259ZM25.9196 190.112H277.21L284.997 182.086V150.783L276.543 142.068V97.9228L284.886 89.323V25.3407L276.654 16.8556H116.024L108.571 9.17308H26.9208L2.11427 34.7431L1.78055 50.9107L9.67857 59.0518V93.5656L3.3379 100.101V166.95L25.9196 190.112Z" fill="#D09B0D"/>
<path d="M47.2774 193.094H24.6957L0.556641 168.212V99.9868H5.33995V166.262L26.698 188.278H47.2774V193.094Z" fill="#D09B0D"/>
<path d="M279.101 192.406L275.763 188.966L283.216 181.283V151.586L275.43 143.559L278.767 140.119L288 149.522V183.347L279.101 192.406Z" fill="#D09B0D"/>
<path d="M287.777 89.4376H283.105V26.1432L275.986 18.8048H264.083V13.9889H277.988L287.777 24.0793V89.4376Z" fill="#D09B0D"/>
<path d="M3.22596 36.2338L0 32.7938L25.6964 6.30652H109.794L117.247 13.989H135.268V18.8049H115.356L107.903 11.1224H27.6987L3.22596 36.2338Z" fill="#D09B0D"/>
<path d="M196.894 11.6957H166.637L161.075 5.96251H120.361V5.3892H161.298L166.86 11.1224H196.672L202.901 4.70122H227.04L231.712 0H276.987V0.458652H231.935L227.263 5.27453H203.124L196.894 11.6957Z" fill="#D09B0D"/>
<path d="M235.495 3.89856L231.602 7.91179H237.052L240.946 3.89856H235.495Z" fill="#D09B0D"/>
<path d="M246.396 3.89856L242.503 7.91179H247.954L251.736 3.89856H246.396Z" fill="#D09B0D"/>
<path d="M268.088 3.89856L264.306 7.91179H269.645L273.539 3.89856H268.088Z" fill="#D09B0D"/>
<path d="M257.186 3.89856L253.404 7.91179H258.855L262.637 3.89856H257.186Z" fill="#D09B0D"/>
<path d="M287.443 102.165L283.661 98.1522V103.771L287.443 107.784V102.165Z" fill="#D09B0D"/>
<path d="M287.443 113.403L283.661 109.389V115.008L287.443 119.021V113.403Z" fill="#D09B0D"/>
<path d="M287.443 135.762L283.661 131.863V137.482L287.443 141.38V135.762Z" fill="#D09B0D"/>
<path d="M287.443 124.639L283.661 120.626V126.245L287.443 130.143V124.639Z" fill="#D09B0D"/>
<path d="M0.889648 87.8324L4.67181 91.8456V86.2271L0.889648 82.3285V87.8324Z" fill="#D09B0D"/>
<path d="M1.00098 65.4729L4.78313 69.4861L4.89437 63.8676L1.00098 59.8544V65.4729Z" fill="#D09B0D"/>
<path d="M0.889648 76.7101L4.78304 80.7233V75.1048L1.00089 71.0916L0.889648 76.7101Z" fill="#D09B0D"/>
<path d="M227.041 8.37048H120.695V8.94323H227.041V8.37048Z" fill="#D09B0D"/>
<path d="M179.653 208H120.251L108.904 196.19H81.9841L76.7559 190.915L77.5345 190.227L82.3179 195.158H109.349L120.696 206.853H179.208L190.554 195.158H217.585L222.369 190.227L223.147 190.915L218.03 196.19H190.999L179.653 208Z" fill="#D09B0D"/>
</svg>
