<svg width="140" height="77" viewBox="0 0 140 77" fill="none" xmlns="http://www.w3.org/2000/svg">
<path d="M134.308 75.9441H14.1592L14.0898 75.8916L1.38776 66.2742V38.6836L4.85826 36.0559V22.392L0.416016 19.0286L0.554834 12.0389L0.624248 11.9864L14.5757 1.4231H40.6738L44.8384 4.57631H134.03L138.889 8.25507V34.637L134.238 38.1581V55.7635L138.958 59.3372V72.4756L134.308 75.9441ZM14.4368 75.5237H134.03L138.334 72.2654V59.4948L133.614 55.9212V37.9479L138.264 34.4268V8.41272L133.753 4.99673H44.6996L40.535 1.84352H14.9227L1.17952 12.2491L1.04071 18.8709L5.41353 22.1818V36.2136L1.94303 38.8413V66.064L14.4368 75.5237Z" fill="#F8C335"/>
<path d="M26.2376 76.7324H13.7438L0.347656 66.5896V38.7887H2.98523V65.8013L14.8543 74.7354H26.2376V76.7324Z" fill="#F8C335"/>
<path d="M135.071 76.4697L133.267 75.0508L137.362 71.9501V59.8102L133.059 56.4993L134.863 55.1329L140 58.9693V72.7384L135.071 76.4697Z" fill="#F8C335"/>
<path d="M139.931 34.5319H137.293V8.72812L133.337 5.73258H126.812V3.78809H134.448L139.931 7.88726V34.5319Z" fill="#F8C335"/>
<path d="M1.87407 12.8273L0 11.4609L14.2985 0.634888H41.2295L45.3247 3.78811H55.3892V5.7326H44.2836L40.119 2.63192H15.3396L1.87407 12.8273Z" fill="#F8C335"/>
</svg>
