<svg width="67" height="22" viewBox="0 0 67 22" fill="none" xmlns="http://www.w3.org/2000/svg">
<path d="M65 21.1432H46.7L45.1 19.0341H2.54999L0.600006 16.4636V3.67727L2.60001 1.04091H21.8L23.75 2.95228H52.5L54.95 0.974994H64.1L66.95 4.73182V18.5727L65 21.1432ZM46.9 20.55H64.85L66.55 18.3091V4.99545L63.95 1.56818H55.2L52.75 3.54545H23.55L21.6 1.63408H2.75L1 3.9409V16.2L2.64999 18.375H45.25L46.9 20.55Z" fill="#D09B0D"/>
<path d="M64.9 21.8682H46.45L44.8 19.7591H33.75V17.65H45.5L47.1 19.7591H64.9V21.8682Z" fill="#D09B0D"/>
<path d="M1.60001 11.0591H0V3.34773L2.35001 0.25H15.05V2.425H3L1.60001 4.27045V11.0591Z" fill="#D09B0D"/>
</svg>
