<svg width="25" height="24" viewBox="0 0 25 24" fill="none" xmlns="http://www.w3.org/2000/svg">
<path d="M15.1154 2.34814L13.5043 2.7806L13.0718 4.39171L14.2505 5.57102L15.8616 5.13853C16.0106 4.60342 16.1507 4.06589 16.2941 3.52927L15.1154 2.34814ZM7.14778 2.72277V3.35271H7.7734C7.7814 5.01699 7.77277 6.67787 7.77277 8.33986C7.73365 8.42593 4.64376 15.2164 3.37862 19.0118C3.25639 19.3785 3.28522 19.8097 3.41553 20.1997C3.48068 20.3947 3.57282 20.5782 3.71573 20.73C3.85865 20.8818 4.07099 21 4.30876 21C7.14344 21 11.8655 21 15.0151 21C15.2529 21 15.4652 20.8818 15.6082 20.73C15.7511 20.5782 15.8432 20.3947 15.9084 20.1997C16.0387 19.8097 16.0675 19.3785 15.9453 19.0118C14.6801 15.2164 11.5903 8.42588 11.5511 8.33986C11.5577 6.67748 11.5554 5.01511 11.5554 3.35271H12.186V2.72277H7.14778ZM18.5032 3.32009L16.892 3.75011L16.4614 5.36184L17.6407 6.54296L19.2518 6.1105C19.393 5.57248 19.5396 5.03588 19.6843 4.49878L18.5032 3.32009ZM10.9255 3.35271V6.50362L8.40518 6.51074L8.40265 3.36172L10.9255 3.35271ZM16.064 5.64975L14.4529 6.08224L14.0204 7.69335L15.2016 8.87262L16.8127 8.44016C16.9563 7.90301 17.0994 7.3657 17.2427 6.82843L16.064 5.64975ZM16.5968 9.65144V10.2813H17.2267V18.1561C17.2267 18.8439 17.1766 19.4851 17.3454 20.0324C17.4298 20.306 17.5853 20.5639 17.8357 20.7374C18.0861 20.9109 18.4097 20.9902 18.8009 20.9902C19.1922 20.9902 19.5151 20.9108 19.7655 20.7374C20.0159 20.5639 20.1695 20.306 20.2539 20.0324C20.4227 19.4851 20.3745 18.8439 20.3745 18.1561V10.2813H21.0044V9.65144H16.5968ZM17.8542 10.2813H19.7446V12.8017H17.8542V10.2813ZM11.9658 13.7565C12.1146 14.2056 11.8439 14.6946 11.3912 14.8324C11.2864 14.8643 11.18 14.8731 11.0762 14.865L10.7299 15.6635C10.9015 15.8128 11.0364 16.0068 11.107 16.2387C11.1763 16.4663 11.173 16.6983 11.1168 16.9141L11.9049 17.3577C11.9867 17.2929 12.0798 17.2408 12.1848 17.2088C12.6374 17.0711 13.1236 17.3301 13.2613 17.7827C13.399 18.2354 13.1406 18.7234 12.688 18.8611C12.2353 18.9989 11.7461 18.738 11.6084 18.2853C11.5692 18.1566 11.5656 18.0262 11.5862 17.9008L10.8105 17.4641C10.6655 17.6177 10.4843 17.7406 10.2691 17.8061C9.60864 18.0071 8.90389 17.6306 8.70292 16.9701C8.63132 16.7348 8.6352 16.4947 8.69678 16.2725L8.15604 15.968C8.06465 16.0515 7.95605 16.1187 7.83062 16.1568C7.37796 16.2946 6.88996 16.0362 6.75223 15.5835C6.6145 15.1309 6.87598 14.6441 7.32864 14.5064C7.7813 14.3686 8.26684 14.6277 8.40457 15.0803C8.43731 15.1879 8.44595 15.297 8.43656 15.4033L9.01358 15.7274C9.15574 15.5816 9.33034 15.4645 9.53771 15.4014C9.74827 15.3374 9.9623 15.3377 10.1646 15.3818L10.5078 14.5907C10.4212 14.4982 10.3519 14.3874 10.3128 14.2591C10.1751 13.8064 10.5647 13.1684 11.1105 13.1588C11.6564 13.1492 11.8745 13.4699 11.9658 13.7565Z" fill="white"/>
</svg>
