<svg width="25" height="24" viewBox="0 0 25 24" fill="none" xmlns="http://www.w3.org/2000/svg">
<g clip-path="url(#clip0_4001_3023)">
<path d="M5.31375 12.4549C5.54892 16.3852 8.81011 19.5 12.7992 19.5C14.5785 19.5 16.2126 18.88 17.4984 17.8448C15.6699 17.3228 13.6435 16.5901 11.5605 15.6852C9.27154 14.6908 7.12589 13.5786 5.31375 12.4549ZM5.83326 9.21698C7.70409 10.4878 10.149 11.8012 12.7557 12.9336C14.799 13.8213 16.8391 14.5533 18.6554 15.0506C18.9508 15.1316 19.2475 15.2079 19.5454 15.2795C19.6246 15.1167 19.6979 14.9511 19.7652 14.7831C20.1093 13.9225 20.2989 12.9834 20.2989 12C20.2989 11.8472 20.2938 11.6956 20.2848 11.5451C20.0495 7.61484 16.7884 4.5 12.7992 4.5C11.02 4.5 9.38592 5.12002 8.10009 6.1552C7.24247 6.84563 6.5399 7.72073 6.05306 8.72048C5.97377 8.88325 5.90045 9.04886 5.83326 9.21698Z" fill="white"/>
<path d="M20.9404 13.3374C20.8815 13.8794 20.829 13.9762 20.6643 14.495C21.4554 15.0593 22.1189 15.6062 22.5926 16.0858C22.7466 16.2418 22.868 16.3776 22.9635 16.4937C22.8845 16.4977 22.7967 16.5 22.6995 16.5C21.6736 16.5 20.167 16.2421 18.4573 15.774C16.6072 15.2674 14.5324 14.5231 12.4569 13.6215C9.6945 12.4215 7.10573 11.018 5.16736 9.66956C4.27293 9.0473 3.52547 8.44022 3.00581 7.91409C2.85182 7.75809 2.73042 7.6223 2.63493 7.50619C2.71383 7.50225 2.80162 7.49995 2.89893 7.49995C3.6165 7.49995 4.56942 7.62623 5.66231 7.86225C5.93536 7.39331 5.98945 7.26689 6.34964 6.8587C5.14336 6.42188 3.92283 6.11822 2.89903 6C1.75514 5.86791 1.00809 6.2588 0.837278 6.80344C0.318185 8.45892 5.2529 12.1274 11.8593 14.9973C16.2919 16.9229 20.3515 18 22.6995 18C23.851 18 24.5903 17.7412 24.7612 17.1965C25.0583 16.2489 23.6263 15 20.9404 13.3374Z" fill="white"/>
</g>
<defs>
<clipPath id="clip0_4001_3023">
<rect width="24" height="24" fill="white" transform="translate(0.799805)"/>
</clipPath>
</defs>
</svg>
