<svg width="24" height="24" viewBox="0 0 24 24" fill="none" xmlns="http://www.w3.org/2000/svg">
<path d="M18.75 14.25H21V17.25H18.75C17.9228 17.25 17.25 16.5772 17.25 15.75C17.25 14.9228 17.9228 14.25 18.75 14.25Z" fill="white"/>
<path d="M21 18.375V21C21 21.8288 20.3288 22.5 19.5 22.5H4.5C3.67125 22.5 3 21.8288 3 21V10.5C3 9.67125 3.67125 9 4.5 9H19.5C20.3288 9 21 9.67125 21 10.5V13.125H18.75C17.3025 13.125 16.125 14.3025 16.125 15.75C16.125 17.1975 17.3025 18.375 18.75 18.375H21Z" fill="white"/>
<path d="M10.125 3.375C10.125 2.33925 10.9643 1.5 12 1.5C13.0357 1.5 13.875 2.33925 13.875 3.375C13.875 4.14375 13.4115 4.80225 12.75 5.09175V7.875H11.25V5.09175C10.5885 4.80225 10.125 4.14375 10.125 3.375Z" fill="white"/>
<path d="M4.125 4.125C4.125 3.08925 4.96425 2.25 6 2.25C7.182 2.25 8.10525 3.345 7.821 4.55325L9.45 5.775C9.639 5.91675 9.75 6.13875 9.75 6.375V7.875H8.25V6.75L6.918 5.75025C5.6415 6.47325 4.125 5.5335 4.125 4.125Z" fill="white"/>
<path d="M19.875 4.125C19.875 5.5395 18.354 6.47025 17.082 5.751L15.75 6.75V7.875H14.25V6.375C14.25 6.13875 14.361 5.91675 14.55 5.775L16.179 4.554C15.8948 3.34425 16.8188 2.25 18 2.25C19.0357 2.25 19.875 3.08925 19.875 4.125Z" fill="white"/>
</svg>
