<svg width="24" height="24" viewBox="0 0 24 24" fill="none" xmlns="http://www.w3.org/2000/svg">
<path d="M21.97 14.607C21.967 14.8288 21.8951 15.0442 21.7643 15.2233C21.6335 15.4025 21.4503 15.5365 21.24 15.607L19.36 16.227C18.7677 16.4312 18.2328 16.7741 17.8 17.227C17.3496 17.6658 17.0072 18.2033 16.8 18.797L16.15 20.667C16.0759 20.8733 15.944 21.0538 15.77 21.187C15.5855 21.3167 15.3655 21.3865 15.14 21.387C14.9168 21.3914 14.6985 21.321 14.52 21.187C14.3375 21.0557 14.2011 20.8702 14.13 20.657L13.5 18.777C13.305 18.186 12.9747 17.6486 12.5355 17.2077C12.0963 16.7667 11.5602 16.4344 10.97 16.237L9.08999 15.617C8.87855 15.5425 8.69406 15.4067 8.55999 15.227C8.45996 15.0909 8.39392 14.9328 8.36737 14.7659C8.34082 14.5991 8.35454 14.4283 8.40737 14.2678C8.46021 14.1074 8.55064 13.9619 8.67112 13.8434C8.7916 13.725 8.93864 13.6371 9.09999 13.587L10.97 12.967C11.5669 12.7726 12.1096 12.4405 12.5543 11.9975C12.9991 11.5545 13.3333 11.0131 13.53 10.417L14.15 8.557C14.2106 8.34928 14.3369 8.16682 14.51 8.037C14.6819 7.89435 14.8967 7.81337 15.12 7.807C15.3476 7.79225 15.5734 7.85577 15.76 7.987C15.9517 8.10874 16.0963 8.29213 16.17 8.507L16.8 10.407C16.9944 11.0039 17.3265 11.5466 17.7695 11.9913C18.2125 12.4361 18.7539 12.7703 19.35 12.967L21.22 13.617C21.4305 13.6829 21.6133 13.8165 21.74 13.997C21.8765 14.1724 21.9567 14.3851 21.97 14.607ZM12.1 7.656C12.0971 7.861 12.0313 8.06017 11.9115 8.22652C11.7916 8.39287 11.6235 8.51836 11.43 8.586L10.09 9.026C9.71223 9.16032 9.37019 9.37923 9.08999 9.666C8.80431 9.94708 8.58557 10.2889 8.44999 10.666L7.97999 12.006C7.91559 12.1928 7.79727 12.3564 7.63999 12.476C7.46974 12.5954 7.26787 12.6615 7.05999 12.666C6.85378 12.6624 6.65372 12.5951 6.48723 12.4734C6.32074 12.3517 6.19596 12.1814 6.12999 11.986L5.68999 10.646C5.55567 10.2682 5.33676 9.92619 5.04999 9.646C4.76806 9.36137 4.42653 9.1428 4.04999 9.006L2.69999 8.556C2.50426 8.49301 2.33527 8.36627 2.21999 8.196C2.09534 8.03226 2.02852 7.83179 2.02999 7.626C2.03134 7.41759 2.09777 7.21481 2.21999 7.046C2.34494 6.88546 2.51588 6.76685 2.70999 6.706L4.04999 6.256C4.42713 6.12042 4.76892 5.90168 5.04999 5.616C5.33999 5.339 5.55899 4.996 5.68999 4.616L6.13999 3.296C6.19992 3.1068 6.3148 2.93971 6.46999 2.816C6.62974 2.68984 6.82647 2.61958 7.02999 2.616C7.2362 2.59866 7.44184 2.65538 7.60999 2.776C7.7821 2.88972 7.91484 3.05389 7.98999 3.246L8.43999 4.616C8.57499 4.994 8.79399 5.336 9.07999 5.616C9.36107 5.90168 9.70285 6.12042 10.08 6.256L11.43 6.726C11.6182 6.7963 11.7809 6.92167 11.8969 7.08577C12.0128 7.24987 12.0766 7.4451 12.08 7.646L12.1 7.656Z" fill="#FFD233"/>
</svg>
